<svg width="179" height="24" viewBox="0 0 179 24" fill="none" xmlns="http://www.w3.org/2000/svg">
<g clip-path="url(#clip0_160_322)">
<path fill-rule="evenodd" clip-rule="evenodd" d="M5.60624 13.8605C5.60624 14.6389 5.32473 15.2497 4.76172 15.6928C4.1987 16.1359 3.42205 16.3574 2.43177 16.3574C1.4415 16.3574 0.630902 16.2037 0 15.8964V14.5431C0.399304 14.7308 0.822568 14.8785 1.2698 14.9863C1.72101 15.094 2.14027 15.1479 2.5276 15.1479C3.09462 15.1479 3.51189 15.0402 3.77943 14.8246C4.05095 14.609 4.18672 14.3196 4.18672 13.9563C4.18672 13.6291 4.06293 13.3516 3.81536 13.124C3.56779 12.8966 3.05668 12.6271 2.28203 12.3157C1.48341 11.9924 0.920398 11.6232 0.592968 11.208C0.265538 10.7929 0.101823 10.2939 0.101823 9.71104C0.101823 8.9806 0.361371 8.40579 0.880467 7.98662C1.39957 7.56744 2.09636 7.35791 2.97083 7.35791C3.80937 7.35791 4.64391 7.54156 5.47448 7.90874L5.01926 9.0764C4.24062 8.74911 3.54583 8.58541 2.93489 8.58541C2.4717 8.58541 2.12031 8.68714 1.88073 8.89073C1.64114 9.09041 1.52136 9.35586 1.52136 9.68719C1.52136 9.91463 1.56927 10.1103 1.6651 10.274C1.76093 10.4337 1.91866 10.5852 2.13827 10.729C2.35789 10.8726 2.75321 11.0624 3.32421 11.2979C3.9671 11.5652 4.43828 11.8148 4.73775 12.0462C5.03723 12.2779 5.25686 12.5393 5.39661 12.8307C5.53636 13.122 5.60624 13.4653 5.60624 13.8605ZM12.2549 16.2381H7.30151V7.4841H12.2549V8.69367H8.73302V11.0767H12.0333V12.2743H8.73302V15.0226H12.2549V16.2381ZM15.9391 9.45961C16.4103 8.87685 17.0572 8.58541 17.8798 8.58541C18.2431 8.58541 18.5884 8.6393 18.916 8.74709C19.2474 8.85085 19.5608 8.97265 19.8562 9.11225L20.3714 7.92073C19.6127 7.54547 18.7862 7.35791 17.8917 7.35791C17.0411 7.35791 16.3005 7.53954 15.6696 7.9028C15.0386 8.26607 14.5555 8.789 14.2201 9.4716C13.8887 10.1542 13.723 10.9505 13.723 11.8607C13.723 13.3057 14.0663 14.4174 14.7532 15.1958C15.44 15.9702 16.4242 16.3574 17.706 16.3574C18.5765 16.3574 19.3551 16.2277 20.042 15.9683V14.7408C19.6666 14.8566 19.3052 14.9524 18.9579 15.0282C18.6104 15.1 18.2511 15.136 17.8798 15.136C17.0212 15.136 16.3644 14.8605 15.9092 14.3096C15.458 13.7588 15.2323 12.9465 15.2323 11.8727C15.2323 10.8468 15.4679 10.0424 15.9391 9.45961ZM28.7937 7.4841V13.1485C28.7937 13.7951 28.6539 14.362 28.3744 14.8491C28.0989 15.332 27.6975 15.7052 27.1705 15.9688C26.6474 16.2282 26.0205 16.3579 25.2897 16.3579C24.2037 16.3579 23.3591 16.0705 22.7562 15.4957C22.1532 14.9209 21.8518 14.1305 21.8518 13.1245V7.4841H23.2893V13.0228C23.2893 13.7453 23.4569 14.2782 23.7924 14.6215C24.1278 14.9648 24.6429 15.1365 25.3377 15.1365C26.6873 15.1365 27.3622 14.4279 27.3622 13.0108V7.4841H28.7937ZM33.4577 11.5557H32.4634V8.69367H33.4098C34.0607 8.69367 34.5478 8.80146 34.8713 9.01692C35.1946 9.23251 35.3564 9.58782 35.3564 10.0827C35.3564 10.5698 35.2066 10.937 34.9072 11.1845C34.6077 11.432 34.1246 11.5557 33.4577 11.5557ZM32.4634 16.2381V12.7413H33.877L35.9733 16.2381H37.6026L35.1289 12.3642C36.2628 11.9011 36.8298 11.1247 36.8298 10.0349C36.8298 9.18063 36.5584 8.54195 36.0152 8.11886C35.4722 7.69564 34.6357 7.4841 33.5057 7.4841H31.032V16.2381H32.4634ZM43.8307 16.2381H38.8773V7.4841H43.8307V8.69367H40.3089V11.0767H43.609V12.2743H40.3089V15.0226H43.8307V16.2381ZM51.6494 15.0944C52.452 14.328 52.8532 13.2223 52.8532 11.7774C52.8532 10.4161 52.4659 9.36024 51.6913 8.60986C50.9167 7.85935 49.8325 7.4841 48.439 7.4841H45.7317V16.2381H48.1814C49.6907 16.2381 50.8467 15.8569 51.6494 15.0944ZM48.403 8.68168C50.3635 8.68168 51.3438 9.72956 51.3438 11.8252C51.3438 13.9648 50.2897 15.0346 48.1814 15.0346H47.1631V8.68168H48.403ZM57.9727 7.4841H60.4463C61.6083 7.4841 62.4488 7.65778 62.968 8.00501C63.487 8.35237 63.7466 8.90118 63.7466 9.65168C63.7466 10.1706 63.6008 10.5997 63.3094 10.939C63.0218 11.2744 62.6006 11.4919 62.0455 11.5917V11.6515C63.3752 11.8791 64.0401 12.5777 64.0401 13.7473C64.0401 14.5296 63.7745 15.1404 63.2435 15.5795C62.7164 16.0186 61.9776 16.2381 61.0273 16.2381H57.9727V7.4841ZM58.9908 11.2325H60.6679C61.3867 11.2325 61.9038 11.1206 62.2193 10.8971C62.5347 10.6695 62.6924 10.2883 62.6924 9.75342C62.6924 9.26242 62.5167 8.90926 62.1654 8.69367C61.814 8.47405 61.2549 8.36436 60.4883 8.36436H58.9908V11.2325ZM58.9908 12.0947V15.37H60.8177C61.5245 15.37 62.0555 15.2342 62.4109 14.9628C62.7703 14.6874 62.9499 14.2582 62.9499 13.6755C62.9499 13.1325 62.7662 12.7334 62.3989 12.4779C62.0356 12.2224 61.4805 12.0947 60.7338 12.0947H58.9908ZM70.4906 7.4841L68.1547 11.8612L65.8368 7.4841H64.7227L67.6396 12.891V16.2381H68.6698V12.8432L71.5927 7.4841H70.4906Z" fill="white"/>
<path fill-rule="evenodd" clip-rule="evenodd" d="M91.5278 0L105.116 0.607306L110.618 12.8297L102.856 24L89.1939 23.1252L83.5928 9.88237L91.5278 0ZM101.49 7.04523L91.6419 11.3475L100.061 17.8565L101.49 7.04523ZM100.35 4.88942L92.4796 1.50108L90.8263 8.62522L100.35 4.88942ZM98.3549 19.4943L89.8016 13.3873L90.0085 21.6626L98.3549 19.4943ZM109.252 12.8027L103.423 6.88869L101.884 18.261L109.252 12.8027ZM100.36 20.8245L93.1467 22.7097L101.63 23.2528L100.36 20.8245ZM108.112 15.4858L101.798 20.1893L103.053 22.6411L108.112 15.4858ZM105.126 2.315L103.899 4.83252L108.464 9.47253L105.126 2.315ZM103.598 1.11028L95.5811 0.784918L102.194 3.67694L103.598 1.11028ZM90.3572 2.27448L84.7422 9.36387L88.4963 10.159L90.3572 2.27448ZM88.2699 11.5497L84.4977 10.7511L88.4337 20.0227L88.2699 11.5497Z" fill="white"/>
<path fill-rule="evenodd" clip-rule="evenodd" d="M119.975 11.1542H119.519V7.09533H118.297V16.6203H119.519V12.1593H119.939L123.788 16.8579L124.718 16.0718L121.015 11.5927L124.171 7.58915L123.24 6.85791L119.975 11.1542ZM130.611 7.09525H129.388V16.6203H135.589V15.5232H130.611V7.09525ZM140.094 7.09525H146.022V8.19215H141.316V11.0444H145.201V12.1412H141.316V15.5233H146.022V16.6204H140.094V7.09525ZM154.121 7.09525H150.892V16.6201H152.115V12.543H153.884L156.309 16.8577L157.367 16.2178L155.033 12.3604C156.181 12.0129 156.965 10.8612 156.965 9.69127C156.965 7.84484 155.707 7.09525 154.121 7.09525ZM155.688 9.69127C155.688 10.7701 154.904 11.4464 153.72 11.4464H152.115V8.19215H154.083C155.178 8.19215 155.688 8.83209 155.688 9.69127ZM167.966 11.8664C167.966 12.6343 167.911 16.7843 164.591 16.7843C163.059 16.7843 161.217 15.6875 161.217 11.8664C161.217 8.06373 163.023 6.93034 164.591 6.93034C166.105 6.93034 167.966 8.02726 167.966 11.8664ZM162.494 11.8664C162.494 13.2558 162.749 15.6325 164.591 15.6325C166.434 15.6325 166.689 13.2558 166.689 11.8664C166.689 10.4588 166.434 8.0821 164.591 8.0821C162.749 8.0821 162.494 10.4588 162.494 11.8664ZM175.627 15.6325C174.35 15.6325 173.784 14.7735 173.547 13.6033L172.453 13.9505C172.745 15.6506 173.857 16.7842 175.627 16.7842C177.378 16.7842 178.637 15.7603 178.637 13.9505C178.637 12.9634 178.18 12.1955 177.323 11.7201L175.298 10.8243C174.569 10.4954 174.021 10.2394 174.021 9.34345C174.021 8.48441 174.788 8.0821 175.572 8.0821C176.612 8.0821 177.104 8.74027 177.323 9.67253L178.491 9.32521C178.108 7.84448 177.177 6.93034 175.59 6.93034C174.094 6.93034 172.799 7.82624 172.799 9.43491C172.799 11.0689 173.892 11.5168 175.136 12.0268C175.256 12.076 175.377 12.1258 175.499 12.1773C175.575 12.2087 175.652 12.2395 175.728 12.2702C176.584 12.6149 177.414 12.9494 177.414 14.0237C177.414 15.0842 176.63 15.6325 175.627 15.6325Z" fill="white"/>
</g>
<defs>
<clipPath id="clip0_160_322">
<rect width="179" height="24" fill="white"/>
</clipPath>
</defs>
</svg>
